:::'###::::'##::: ##:'####:'##::::'##::::'###::::'##::: ##::'######::::::'###::::
::'## ##::: ###:: ##:. ##:: ###::'###:::'## ##::: ###:: ##:'##... ##::::'## ##:::
:'##:. ##:: ####: ##:: ##:: ####'####::'##:. ##:: ####: ##: ##:::..::::'##:. ##::
'##:::. ##: ## ## ##:: ##:: ## ### ##:'##:::. ##: ## ## ##: ##::'####:'##:::. ##:
 #########: ##. ####:: ##:: ##. #: ##: #########: ##. ####: ##::: ##:: #########:
 ##.... ##: ##:. ###:: ##:: ##:.:: ##: ##.... ##: ##:. ###: ##::: ##:: ##.... ##:
 ##:::: ##: ##::. ##:'####: ##:::: ##: ##:::: ##: ##::. ##:. ######::: ##:::: ##:
..:::::..::..::::..::....::..:::::..::..:::::..::..::::..:::......::::..:::::..::

:::::::::'##::::'##:'####:'########::'########::'#######:::::::::::::::::::::::
::::::::: ##:::: ##:. ##:: ##.... ##: ##.....::'##.... ##::::::::::::::::::::::
::::::::: ##:::: ##:: ##:: ##:::: ##: ##::::::: ##:::: ##::::::::::::::::::::::
::::::::: ##:::: ##:: ##:: ##:::: ##: ######::: ##:::: ##::::::::::::::::::::::
:::::::::. ##:: ##::: ##:: ##:::: ##: ##...:::: ##:::: ##::::::::::::::::::::::
::::::::::. ## ##:::: ##:: ##:::: ##: ##::::::: ##:::: ##::::::::::::::::::::::
:::::::::::. ###::::'####: ########:: ########:. #######:::::::::::::::::::::::
::::::::::::...:::::....::........:::........:::.......::::::::::::::::::::::::

	        http://www.imdb.com/title/tt0879812/

PS3/XBOX360 TESTED AND FULLY WORKING

This is my first torrent! Long time downloader ready to start sharing my rare finds. Took some time to find this and I don't see it anywhere now. This is an old encode but the next uploads will continue to grow in quality.Thanks community and especially the uber wonderful bay!

ANIMANGA-VIDEO

Media Info:

General
Complete name                    : Gegege No Kitarou CD1 ENG-HARDSUBBED.avi
Format                           : AVI
Format/Info                      : Audio Video Interleave
File size                        : 736 MiB
Duration                         : 55mn 20s
Overall bit rate                 : 1 859 Kbps
Writing application              : VirtualDubMod 1.5.10.2 (build 2540/release)
Writing library                  : VirtualDub build 30091/release

Video
ID                               : 0
Format                           : MPEG-4 Visual
Format profile                   : Advanced Simple@L5
Format settings, BVOP            : Yes
Format settings, QPel            : No
Format settings, GMC             : No warppoints
Format settings, Matrix          : Default (H.263)
Muxing mode                      : Packed bitstream
Codec ID                         : XVID
Codec ID/Hint                    : XviD
Duration                         : 55mn 20s
Bit rate                         : 1 402 Kbps
Width                            : 640 pixels
Height                           : 352 pixels
Display aspect ratio             : 16:9
Frame rate                       : 23.976 fps
Resolution                       : 8 bits
Colorimetry                      : 4:2:0
Scan type                        : Progressive
Bits/(Pixel*Frame)               : 0.259
Stream size                      : 555 MiB (75%)
Writing library                  : XviD 1.1.0 Beta2 (UTC 2005-04-04)

Audio
ID                               : 1
Format                           : AC-3
Format/Info                      : Audio Coding 3
Codec ID                         : 2000
Duration                         : 55mn 20s
Bit rate mode                    : Constant
Bit rate                         : 448 Kbps
Channel(s)                       : 6 channels
Channel positions                : Front: L C R, Side: L R, LFE
Sampling rate                    : 48.0 KHz
Stream size                      : 177 MiB (24%)
Alignment                        : Split accross interleaves
Interleave, duration             : 42 ms (1.00 video frame)
Interleave, preload duration     : 500 ms

General
Complete name                    : Gegege No Kitarou CD2 ENG-HARDSUBBED.avi
Format                           : AVI
Format/Info                      : Audio Video Interleave
File size                        : 712 MiB
Duration                         : 47mn 59s
Overall bit rate                 : 2 074 Kbps
Writing application              : VirtualDubMod 1.5.10.2 (build 2540/release)
Writing library                  : VirtualDub build 30091/release

Video
ID                               : 0
Format                           : MPEG-4 Visual
Format profile                   : Advanced Simple@L5
Format settings, BVOP            : Yes
Format settings, QPel            : No
Format settings, GMC             : No warppoints
Format settings, Matrix          : Default (H.263)
Muxing mode                      : Packed bitstream
Codec ID                         : XVID
Codec ID/Hint                    : XviD
Duration                         : 47mn 59s
Bit rate                         : 1 617 Kbps
Width                            : 640 pixels
Height                           : 352 pixels
Display aspect ratio             : 16:9
Frame rate                       : 23.976 fps
Resolution                       : 8 bits
Colorimetry                      : 4:2:0
Scan type                        : Progressive
Bits/(Pixel*Frame)               : 0.299
Stream size                      : 555 MiB (78%)
Writing library                  : XviD 1.1.0 Beta2 (UTC 2005-04-04)

Audio
ID                               : 1
Format                           : AC-3
Format/Info                      : Audio Coding 3
Codec ID                         : 2000
Duration                         : 47mn 59s
Bit rate mode                    : Constant
Bit rate                         : 448 Kbps
Channel(s)                       : 6 channels
Channel positions                : Front: L C R, Side: L R, LFE
Sampling rate                    : 48.0 KHz
Video delay                      : 3ms
Stream size                      : 154 MiB (22%)
Alignment                        : Split accross interleaves
Interleave, duration             : 42 ms (1.00 video frame)
Interleave, preload duration     : 500 ms

